<?xml version="1.0" encoding="UTF-8" standalone="no"?><!DOCTYPE svg PUBLIC "-//W3C//DTD SVG 1.1//EN" "http://www.w3.org/Graphics/SVG/1.1/DTD/svg11.dtd"><svg width="100%" height="100%" viewBox="0 0 1290 1290" version="1.1" xmlns="http://www.w3.org/2000/svg" xmlns:xlink="http://www.w3.org/1999/xlink" xml:space="preserve" xmlns:serif="http://www.serif.com/" style="fill-rule:evenodd;clip-rule:evenodd;stroke-linecap:square;stroke-linejoin:round;stroke-miterlimit:1.5;"><rect x="4.167" y="4.167" width="1280.91" height="1280.91" style="fill-opacity:0;stroke:#fff;stroke-opacity:0;stroke-width:8.33px;"/><path d="M70.846,978.264c-23.699,-13.682 -38.299,-38.969 -38.299,-66.335c0,-27.365 0,-177.259 0,-229.832c0,-26.656 20.486,40.448 38.873,29.832c110.47,-63.779 375.314,-83.351 479.9,-143.733c60.307,-34.818 134.608,-34.818 194.915,0c105.479,60.897 378.398,104.083 465.851,154.573c2.769,1.599 44.628,-43.416 44.628,-25.074c0,131.66 0,183.906 0,214.234c0,30.329 -16.18,58.353 -42.446,73.517c-125.108,72.231 -314.871,181.79 -439.51,253.749c-77.957,45.008 -174.005,45.008 -251.962,0c-128.845,-74.388 -327.284,-188.955 -451.95,-260.931Z" style="fill:#454951;stroke:#fff;stroke-width:20.83px;stroke-linecap:round;"/><path d="M70.846,805.548c-23.699,-13.683 -38.299,-38.969 -38.299,-66.335c0,-27.366 0,-175.681 0,-228.254c0,-26.656 20.486,38.87 38.873,28.254c110.47,-63.779 375.314,-83.352 479.9,-143.733c60.307,-34.818 134.608,-34.818 194.915,0c105.479,60.897 378.398,104.082 465.851,154.573c2.769,1.599 44.628,-63.169 44.628,-44.827c0,131.66 0,203.659 0,233.987c0,30.328 -16.18,58.353 -42.446,73.517c-125.108,72.231 -314.871,181.789 -439.51,253.748c-77.957,45.009 -174.005,45.009 -251.962,0c-128.845,-74.387 -327.284,-188.955 -451.95,-260.93Z" style="fill:#353941;stroke:#fff;stroke-width:20.83px;stroke-linecap:round;"/><path d="M70.846,628.465c-23.699,-13.683 -38.299,-38.97 -38.299,-66.335c0,-27.366 0,-124.965 0,-177.538c0,-26.655 20.486,-11.846 38.873,-22.462c110.469,-63.779 375.309,-83.352 479.894,-143.734c60.306,-34.818 134.606,-34.818 194.913,0c105.478,60.898 378.393,104.083 465.846,154.574c2.769,1.598 44.162,-3.441 44.162,14.902c0,131.66 0.465,143.929 0.465,174.258c0,30.328 -16.18,58.353 -42.445,73.517c-125.107,72.23 -314.868,181.789 -439.505,253.748c-77.957,45.008 -174.003,45.008 -251.96,0c-128.843,-74.387 -327.28,-188.955 -451.944,-260.93Z" style="fill:#26282b;stroke:#fff;stroke-width:20.83px;stroke-linecap:round;"/><path d="M70.536,452.091c-23.562,-13.751 -38.032,-38.995 -37.989,-66.275c0.042,-27.28 14.591,-52.479 38.195,-66.156c133.167,-77.163 351.224,-203.514 476.712,-276.226c60.145,-34.851 134.299,-35.032 194.614,-0.477c123.096,70.524 335.261,192.076 471.477,270.117c26.389,15.118 42.674,43.2 42.69,73.613c0.016,30.414 -16.239,58.512 -42.613,73.659c-126.025,72.378 -317.116,182.124 -442.504,254.136c-78.246,44.938 -174.549,44.603 -252.481,-0.878c-128.048,-74.729 -324.643,-189.463 -448.101,-261.513Z" style="fill:#0c0e21;stroke:#fff;stroke-width:20.83px;stroke-linecap:round;"/><path d="M1106.5,387.13l-461.88,266.666l-115.47,-66.666l75.571,-310.298l-306.512,176.964l-115.47,-66.666l461.881,-266.667l115.296,66.566l-56.256,299.347l287.37,-165.913l115.47,66.667Z" style="fill:#fff;fill-rule:nonzero;"/></svg>