<?xml version="1.0" standalone="no"?> <!DOCTYPE svg PUBLIC "-//W3C//DTD SVG 1.0//EN" "http://www.w3.org/TR/2001/REC-SVG-20010904/DTD/svg10.dtd" > <svg xmlns="http://www.w3.org/2000/svg" width="100%" height="100%">
<defs >
<font id="fp-1549" horiz-adv-x="1582" ><font-face
    font-family="Elemental End"
    units-per-em="2048"
    panose-1="2 0 5 0 0 0 0 0 0 0"
    ascent="1950"
    descent="-400"
    alphabetic="0" />
<missing-glyph horiz-adv-x="1800" d="M1350 300V1200H450V300H1350ZM150 0V1500H1650V0H150Z" />
<glyph unicode=" " glyph-name="space" horiz-adv-x="500" />
<glyph unicode="!" glyph-name="exclam" horiz-adv-x="600" d="M150 0V300H450V0H150ZM450 600H150V1500H450V600Z" />
<glyph unicode="&quot;" glyph-name="quotedbl" horiz-adv-x="1050" d="M150 900V1500H450L449 900H150ZM600 899V1500L900 1499L899 899H600Z" />
<glyph unicode="#" glyph-name="numbersign" horiz-adv-x="1800" d="M1050 300H750V0H450V300H150V600H450V900H150V1200H450V1500H750V1200H1050V1500H1350V1200H1650V900H1350V600H1650V300H1350V0H1050V300ZM750 600H1050V900H750V600Z" />
<glyph unicode="$" glyph-name="dollar" horiz-adv-x="1800" d="M750 600H650Q150 600 150 1000Q150 1500 650 1500H750V1750H1050V1500H1650V1200H1050V900H1150Q1650 900 1650 500Q1650 0 1150 0H1050V-250H750V0H150V300H750V600ZM1050 300H1100Q1350 300 1350
450Q1350 600 1100 600H1050V300ZM750 1200H700Q450 1200 450 1050Q450 900 700 900H750V1200Z" />
<glyph unicode="%" glyph-name="percent" horiz-adv-x="1700" d="M450 0H50L1250 1500H1650L450 0ZM416 986Q565 986 565 1135V1168Q565 1319 416 1316L365 1315Q235 1312 235 1168V1135Q235 986 384 986H416ZM442 801L358 800V801Q50 801 50 1109V1193Q50 1501
358 1501H442Q750 1501 750 1193V1109Q750 805 442 801ZM1316 186Q1465 186 1465 335V368Q1465 519 1316 516L1265 515Q1135 512 1135 368V335Q1135 186 1284 186H1316ZM1342 1L1258 0V1Q950 1 950 309V393Q950 701 1258 701H1342Q1650 701 1650 393V309Q1650 5
1342 1Z" />
<glyph unicode="&amp;" glyph-name="ampersand" horiz-adv-x="1800" d="M1200 599L650 600Q450 600 450 450Q450 300 700 300H1200V599ZM1500 600V300H1650V0H650Q150 0 150 450Q150 700 300 750Q150 800 150 1050Q150 1500 650 1500H1050V1200H700Q450 1200 450
1050Q450 900 650 900L1200 899V1050H1500V900H1650V600H1500Z" />
<glyph unicode="&apos;" glyph-name="quotesingle" horiz-adv-x="600" d="M150 900V1500H450L449 900H150Z" />
<glyph unicode="(" glyph-name="parenleft" horiz-adv-x="900" d="M750 0V-300H650Q150 -300 150 200V1300Q150 1800 650 1800H750V1500H700Q450 1500 450 1250V250Q450 0 700 0H750Z" />
<glyph unicode=")" glyph-name="parenright" horiz-adv-x="900" d="M200 0Q450 0 450 250V1250Q450 1500 200 1500H150V1800H250Q750 1800 750 1300V200Q750 -300 250 -300H150V0H200Z" />
<glyph unicode="*" glyph-name="asterisk" horiz-adv-x="950" d="M474 954L273 752L100 925L301 1127L100 1328L273 1500L474 1299L677 1500L848 1328L646 1127L848 925L676 752L474 954Z" />
<glyph unicode="+" glyph-name="plus" horiz-adv-x="1500" d="M600 601H150V901H600V1351H900V900H1351L1350 601H900V150H600V601Z" />
<glyph unicode="," glyph-name="comma" horiz-adv-x="600" d="M150 -300V300H450V0Q450 -300 150 -300Z" />
<glyph unicode="-" glyph-name="hyphen" horiz-adv-x="1200" d="M150 600V900H1050V600H150Z" />
<glyph unicode="." glyph-name="period" horiz-adv-x="600" d="M150 0V300H450V0H150Z" />
<glyph unicode="/" glyph-name="slash" horiz-adv-x="750" d="M400 0H50L350 1500H700L400 0Z" />
<glyph unicode="0" glyph-name="zero" horiz-adv-x="1800" d="M1100 300Q1350 300 1350 550V950Q1350 1200 1100 1200H650Q450 1200 450 950V550Q450 300 700 300H1100ZM1150 0L650 -1V0Q150 0 150 500V1000Q150 1500 650 1500H1150Q1650 1500 1650 1000V500Q1650
1 1150 0Z" />
<glyph unicode="1" glyph-name="one" horiz-adv-x="600" d="M450 0H150V1500H450V0Z" />
<glyph unicode="2" glyph-name="two" horiz-adv-x="1800" d="M700 600Q450 600 450 450V300H1650V0H150V500Q150 900 650 900H1100Q1350 900 1350 1050Q1350 1200 1100 1200H150V1500H1150Q1650 1500 1650 1000Q1650 600 1150 600H700Z" />
<glyph unicode="3" glyph-name="three" horiz-adv-x="1800" d="M150 599V899L1150 900Q1350 900 1350 1050Q1350 1200 1100 1200H150V1500H1150Q1650 1500 1650 1050Q1650 800 1500 750Q1650 700 1650 450Q1650 0 1150 0H150V300H1100Q1350 300 1350 450Q1350
600 1150 600L150 599Z" />
<glyph unicode="4" glyph-name="four" horiz-adv-x="1800" d="M1350 1500H1650V0H1350V600H150V1500H450V900H1350V1500Z" />
<glyph unicode="5" glyph-name="five" horiz-adv-x="1800" d="M1150 900Q1650 900 1650 500Q1650 0 1150 0H150V300H1100Q1350 300 1350 450Q1350 600 1100 600H150V1500H1650V1200H450V900H1150Z" />
<glyph unicode="6" glyph-name="six" horiz-adv-x="1800" d="M1101 599H699Q450 599 450 450V449Q450 299 700 299H1100Q1350 299 1350 448V450Q1350 599 1101 599ZM151 451L150 450V1000Q150 1500 650 1500H1150Q1650 1500 1651 1000H1351V1050Q1351 1200 1110
1200H691Q451 1200 451 1051V1050L450 877Q537 899 650 899H1151Q1650 899 1650 452V448Q1650 0 1151 0H651Q151 0 151 450V451Z" />
<glyph unicode="7" glyph-name="seven" horiz-adv-x="1800" d="M150 1200V1500H1650V0H1350V1200H150Z" />
<glyph unicode="8" glyph-name="eight" horiz-adv-x="1800" d="M649 600Q449 600 449 450Q449 300 699 300H1100Q1350 300 1350 450Q1350 600 1150 600H649ZM1150 1500Q1650 1500 1650 1050Q1650 800 1500 750Q1650 700 1650 450Q1650 0 1150 0H1000V-1L649 0Q150
0 150 448V453Q150 700 299 750Q150 800 150 1047V1052Q150 1500 649 1500H1150ZM1150 900Q1350 900 1350 1050Q1350 1200 1100 1200H699Q449 1200 449 1050Q449 900 649 900H1150Z" />
<glyph unicode="9" glyph-name="nine" horiz-adv-x="1800" d="M700 901H1102Q1351 901 1351 1050V1051Q1351 1201 1101 1201H701Q451 1201 451 1052V1050Q451 901 700 901ZM1650 1049L1651 1050V500Q1651 0 1151 0H651Q151 0 150 500H450V450Q450 300 691 300H1110Q1350
300 1350 449V450L1351 623Q1264 601 1151 601H650Q151 601 151 1048V1052Q151 1500 650 1500H1150Q1650 1500 1650 1050V1049Z" />
<glyph unicode=":" glyph-name="colon" horiz-adv-x="600" d="M150 0V300H450V0H150ZM150 900H450V600H150V900Z" />
<glyph unicode=";" glyph-name="semicolon" horiz-adv-x="600" d="M150 -300V300H450V0Q450 -300 150 -300ZM150 900H450V600H150V900Z" />
<glyph unicode="&lt;" glyph-name="less" horiz-adv-x="1500" d="M1350 950L550 750L1350 550V200L150 600V900L1350 1300V950Z" />
<glyph unicode="=" glyph-name="equal" horiz-adv-x="1500" d="M150 300V600L1351 599L1350 300H150ZM150 1200H1351L1350 900H150V1200Z" />
<glyph unicode="&gt;" glyph-name="greater" horiz-adv-x="1500" d="M150 1300L1350 900V600L150 200V550L950 750L150 950V1300Z" />
<glyph unicode="?" glyph-name="question" horiz-adv-x="1800" d="M650 600V900H1100Q1350 900 1350 1050Q1350 1200 1100 1200H150V1500H1150Q1650 1500 1650 1000Q1650 600 1150 600H650ZM650 0V300H950V0H650Z" />
<glyph unicode="@" glyph-name="at" horiz-adv-x="1800" d="M1150 800Q1350 800 1350 950Q1350 1200 1100 1200H650Q450 1200 450 950V550Q450 300 700 300H1100Q1324 300 1347 500H1650Q1650 1 1150 0L650 -1V0Q150 0 150 500V1000Q150 1500 650 1500H1150Q1650
1500 1650 1000Q1650 550 1350 550H950Q650 550 650 775Q650 950 800 950Q950 950 950 800H1150Z" />
<glyph unicode="A" glyph-name="A" horiz-adv-x="1700" d="M1339 0L851 1123L364 0H37L688 1500H1014L1665 0H1339Z" />
<glyph unicode="B" glyph-name="B" horiz-adv-x="1800" d="M150 900H1150Q1350 900 1350 1050Q1350 1200 1100 1200H150V1500H1150Q1650 1500 1650 1050Q1650 800 1500 750Q1650 700 1650 450Q1650 0 1150 0H150V300H1100Q1350 300 1350 450Q1350 600 1150 600H150V900Z" />
<glyph unicode="C" glyph-name="C" horiz-adv-x="1800" d="M1650 300V0H650Q150 0 150 500V1000Q150 1500 650 1500H1650V1200H691Q450 1200 450 960V541Q450 300 692 300H1650Z" />
<glyph unicode="D" glyph-name="D" horiz-adv-x="1800" d="M150 1200V1500H1150Q1650 1500 1650 1000V500Q1650 0 1150 0H150V300H1108Q1348 300 1348 537V964Q1348 1200 1109 1200H150Z" />
<glyph unicode="E" glyph-name="E" horiz-adv-x="1800" d="M150 0V300H1650V0H150ZM150 900H1650V600H150V900ZM150 1500H1650V1200H150V1500Z" />
<glyph unicode="F" glyph-name="F" horiz-adv-x="1800" d="M150 900H1651L1650 600H150V900ZM150 1500H1651V1200H150V1500Z" />
<glyph unicode="G" glyph-name="G" horiz-adv-x="1800" d="M1650 800V0H650Q150 0 150 500V1000Q150 1500 650 1500H1650V1200H691Q450 1200 450 960V541Q450 300 692 300H1350V800H1650Z" />
<glyph unicode="H" glyph-name="H" horiz-adv-x="1800" d="M1350 900V1499L1650 1500V0H1350V600H450V0H150V1500H450V900H1350Z" />
<glyph unicode="I" glyph-name="I" horiz-adv-x="600" d="M450 0H150V1500H450V0Z" />
<glyph unicode="J" glyph-name="J" horiz-adv-x="1800" d="M1351 1500H1651V500Q1651 0 1151 0H651Q140 0 150 500L151 550H451V541Q451 300 691 300H1110Q1351 300 1351 542V1500Z" />
<glyph unicode="K" glyph-name="K" horiz-adv-x="1800" d="M369 750L1202 1500H1650L817 750L1650 0H1202L369 750Z" />
<glyph unicode="L" glyph-name="L" horiz-adv-x="1800" d="M1650 300V0H150V1500H450V300H1650Z" />
<glyph unicode="M" glyph-name="M" horiz-adv-x="2100" d="M450 849V0H150V1500H457L1050 333L1643 1500H1950V0H1650V850L1219 1V0H881L450 849Z" />
<glyph unicode="N" glyph-name="N" horiz-adv-x="1800" d="M450 1045V0H150V1500H456L1350 455V1500H1650V0H1345L450 1045Z" />
<glyph unicode="O" glyph-name="O" horiz-adv-x="1800" d="M1100 300Q1350 300 1350 550V950Q1350 1200 1100 1200H650Q450 1200 450 950V550Q450 300 700 300H1100ZM1150 0L650 -1V0Q150 0 150 500V1000Q150 1500 650 1500H1150Q1650 1500 1650 1000V500Q1650 1 1150 0Z" />
<glyph unicode="P" glyph-name="P" horiz-adv-x="1800" d="M150 900H1100Q1350 900 1350 1050Q1350 1200 1100 1200H150V1500H1150Q1650 1500 1650 1050Q1650 600 1150 600H150V900Z" />
<glyph unicode="Q" glyph-name="Q" horiz-adv-x="1800" d="M1378 34Q1281 0 1150 0L650 -1V0Q150 0 150 500V1000Q150 1500 650 1500H1150Q1650 1500 1650 1000V500Q1650 330 1592 218L1700 100L1500 -100L1378 34ZM1136 301L1000 450L1200 650L1347 489Q1350
513 1350 541V960Q1350 1200 1109 1200L661 1199Q450 1199 450 960V541Q450 300 692 300H1108Q1122 300 1136 301Z" />
<glyph unicode="R" glyph-name="R" horiz-adv-x="1800" d="M596 600H150V900H1100Q1350 900 1350 1050Q1350 1200 1100 1200H150V1500H1150Q1650 1500 1650 1050Q1650 600 1150 600H1057L1761 0H1300L596 600Z" />
<glyph unicode="S" glyph-name="S" horiz-adv-x="1800" d="M650 600Q150 600 150 1050Q150 1500 650 1500H1650V1200H700Q450 1200 450 1050Q450 900 700 900H1150Q1650 900 1650 450Q1650 0 1150 0H150V300H1100Q1350 300 1350 450Q1350 600 1100 600H650Z" />
<glyph unicode="T" glyph-name="T" horiz-adv-x="1800" d="M750 1200H151L150 1500H1650V1200H1050V0H750V1200Z" />
<glyph unicode="U" glyph-name="U" horiz-adv-x="1800" d="M1350 1500H1650V500Q1650 0 1150 0H650Q150 0 150 500V1500H450V541Q450 300 690 300H1109Q1350 300 1350 542V1500Z" />
<glyph unicode="V" glyph-name="V" horiz-adv-x="1700" d="M1665 1500L1014 0H688L37 1500H364L851 377L1339 1500H1665Z" />
<glyph unicode="W" glyph-name="W" horiz-adv-x="2100" d="M445 0L-4 1500H309L602 523L894 1500H1207L1500 523L1792 1500H2105L1656 0H1343L1051 977L758 0H445Z" />
<glyph unicode="X" glyph-name="X" horiz-adv-x="1700" d="M850 516L419 0H27L654 750L27 1500H419L850 984L1281 1500H1673L1046 750L1673 0H1281L850 516Z" />
<glyph unicode="Y" glyph-name="Y" horiz-adv-x="1700" d="M1000 695V0H700V695L27 1500H419L850 985L1281 1500H1673L1000 695Z" />
<glyph unicode="Z" glyph-name="Z" horiz-adv-x="1800" d="M1191 1200H150V1500H1650V1200L609 300H1650V0H150V300L1191 1200Z" />
<glyph unicode="[" glyph-name="bracketleft" horiz-adv-x="900" d="M750 0V-300H150V1800H750V1500H450V0H750Z" />
<glyph unicode="\" glyph-name="backslash" horiz-adv-x="750" d="M50 1500H400L700 0H350L50 1500Z" />
<glyph unicode="]" glyph-name="bracketright" horiz-adv-x="900" d="M450 0V1500H150V1800H750V-300H150V0H450Z" />
<glyph unicode="_" glyph-name="underscore" horiz-adv-x="1800" d="M0 -300V0H1800V-300H0Z" />
<glyph unicode="`" glyph-name="grave" horiz-adv-x="550" d="M250 1600L50 1950H300L500 1600H250Z" />
<glyph unicode="a" glyph-name="a" horiz-adv-x="1700" d="M494 300L364 0H37L688 1500H1014L1665 0H1339L1209 300H494ZM1078 600L851 1123L624 600H1078Z" />
<glyph unicode="b" glyph-name="b" horiz-adv-x="1800" d="M1150 1500Q1650 1500 1650 1050Q1650 800 1500 750Q1650 700 1650 450Q1650 0 1150 0H150V1500H1150ZM1150 600H450V300H1100Q1350 300 1350 450Q1350 600 1150 600ZM1150 900Q1350 900 1350 1050Q1350
1200 1100 1200H450V900H1150Z" />
<glyph unicode="c" glyph-name="c" horiz-adv-x="1800" d="M1650 300V0H650Q150 0 150 500V1000Q150 1500 650 1500H1650V1200H691Q450 1200 450 960V541Q450 300 692 300H1650Z" />
<glyph unicode="d" glyph-name="d" horiz-adv-x="1800" d="M1150 1500Q1650 1500 1650 1000V500Q1650 0 1150 0H150V1500H1150ZM1109 1200H450V300H1108Q1348 300 1348 537V964Q1348 1200 1109 1200Z" />
<glyph unicode="e" glyph-name="e" horiz-adv-x="1800" d="M450 300H1650V0H150V1500H1650V1200H450V900H1650V600H450V300Z" />
<glyph unicode="f" glyph-name="f" horiz-adv-x="1800" d="M450 900H1650V600H450V0H150V1500H1650V1200H450V900Z" />
<glyph unicode="g" glyph-name="g" horiz-adv-x="1800" d="M1650 800V0H650Q150 0 150 500V1000Q150 1500 650 1500H1650V1200H691Q450 1200 450 960V541Q450 300 692 300H1350V800H1650Z" />
<glyph unicode="h" glyph-name="h" horiz-adv-x="1800" d="M1350 900V1499L1650 1500V0H1350V600H450V0H150V1500H450V900H1350Z" />
<glyph unicode="i" glyph-name="i" horiz-adv-x="600" d="M450 0H150V1500H450V0Z" />
<glyph unicode="j" glyph-name="j" horiz-adv-x="1800" d="M1351 1500H1651V500Q1651 0 1151 0H651Q140 0 150 500L151 550H451V541Q451 300 691 300H1110Q1351 300 1351 542V1500Z" />
<glyph unicode="k" glyph-name="k" horiz-adv-x="1800" d="M450 677V0H150V1500H450V823L1202 1500H1650L818 750L1650 0H1202L450 677Z" />
<glyph unicode="l" glyph-name="l" horiz-adv-x="1800" d="M1650 300V0H150V1500H450V300H1650Z" />
<glyph unicode="m" glyph-name="m" horiz-adv-x="2100" d="M450 849V0H150V1500H457L1050 333L1643 1500H1950V0H1650V850L1219 1V0H881L450 849Z" />
<glyph unicode="n" glyph-name="n" horiz-adv-x="1800" d="M450 1045V0H150V1500H456L1350 455V1500H1650V0H1345L450 1045Z" />
<glyph unicode="o" glyph-name="o" horiz-adv-x="1800" d="M1100 300Q1350 300 1350 550V950Q1350 1200 1100 1200H650Q450 1200 450 950V550Q450 300 700 300H1100ZM1150 0L650 -1V0Q150 0 150 500V1000Q150 1500 650 1500H1150Q1650 1500 1650 1000V500Q1650 1 1150 0Z" />
<glyph unicode="p" glyph-name="p" horiz-adv-x="1800" d="M1100 900Q1350 900 1350 1050Q1350 1200 1100 1200H450V900H1100ZM450 0H150V1500H1150Q1650 1500 1650 1050Q1650 600 1150 600H450V0Z" />
<glyph unicode="q" glyph-name="q" horiz-adv-x="1800" d="M1378 34Q1281 0 1150 0L650 -1V0Q150 0 150 500V1000Q150 1500 650 1500H1150Q1650 1500 1650 1000V500Q1650 330 1592 218L1700 100L1500 -100L1378 34ZM1136 301L1000 450L1200 650L1347 489Q1350
513 1350 541V960Q1350 1200 1109 1200H660Q450 1199 450 960V541Q450 300 692 300H1108Q1122 300 1136 301Z" />
<glyph unicode="r" glyph-name="r" horiz-adv-x="1800" d="M1100 900Q1350 900 1350 1050Q1350 1200 1100 1200H450V900H1100ZM596 600H450V0H150V1500H1150Q1650 1500 1650 1050Q1650 600 1150 600H1057L1761 0H1300L596 600Z" />
<glyph unicode="s" glyph-name="s" horiz-adv-x="1800" d="M650 600Q150 600 150 1050Q150 1500 650 1500H1650V1200H700Q450 1200 450 1050Q450 900 700 900H1150Q1650 900 1650 450Q1650 0 1150 0H150V300H1100Q1350 300 1350 450Q1350 600 1100 600H650Z" />
<glyph unicode="t" glyph-name="t" horiz-adv-x="1800" d="M750 1200H151L150 1500H1650V1200H1050V0H750V1200Z" />
<glyph unicode="u" glyph-name="u" horiz-adv-x="1800" d="M1350 1500H1650V500Q1650 0 1150 0H650Q150 0 150 500V1500H450V541Q450 300 690 300H1109Q1350 300 1350 542V1500Z" />
<glyph unicode="v" glyph-name="v" horiz-adv-x="1700" d="M1665 1500L1014 0H688L37 1500H364L851 377L1339 1500H1665Z" />
<glyph unicode="w" glyph-name="w" horiz-adv-x="2100" d="M445 0L-4 1500H309L602 523L894 1500H1207L1500 523L1792 1500H2105L1656 0H1343L1051 977L758 0H445Z" />
<glyph unicode="x" glyph-name="x" horiz-adv-x="1700" d="M850 516L419 0H27L654 750L27 1500H419L850 984L1281 1500H1673L1046 750L1673 0H1281L850 516Z" />
<glyph unicode="y" glyph-name="y" horiz-adv-x="1700" d="M1000 695V0H700V695L27 1500H419L850 985L1281 1500H1673L1000 695Z" />
<glyph unicode="z" glyph-name="z" horiz-adv-x="1800" d="M1191 1200H150V1500H1650V1200L609 300H1650V0H150V300L1191 1200Z" />
<glyph unicode="|" glyph-name="bar" horiz-adv-x="600" d="M450 -150H150L151 1500H451L450 -150Z" />
<glyph unicode="~" glyph-name="asciitilde" horiz-adv-x="1500" d="M150 600V900Q299 825 449 825Q569 825 748 900T1049 975Q1199 975 1350 900V600Q1200 675 1050 675Q929 675 750 600T450 525Q300 525 150 600Z" />
</font>
</defs>
</svg>
