<?xml version="1.0" standalone="no"?>
<!DOCTYPE svg PUBLIC "-//W3C//DTD SVG 20010904//EN"
 "http://www.w3.org/TR/2001/REC-SVG-20010904/DTD/svg10.dtd">
<svg version="1.0" xmlns="http://www.w3.org/2000/svg"
 width="620.000000pt" height="620.000000pt" viewBox="0 0 620.000000 620.000000"
 preserveAspectRatio="xMidYMid meet">
<metadata>
Created by potrace 1.11, written by Peter Selinger 2001-2013
</metadata>
<g transform="translate(0.000000,620.000000) scale(0.100000,-0.100000)"
fill="#000000" stroke="none">
<path d="M3000 6060 c-80 -9 -219 -49 -285 -82 -146 -74 -2377 -1377 -2408
-1406 -21 -21 -51 -59 -65 -87 -23 -43 -27 -62 -27 -140 0 -104 20 -158 84
-222 41 -41 2197 -1305 2334 -1368 299 -138 685 -132 981 17 22 11 529 300
1125 642 746 427 1100 636 1136 668 77 70 110 147 110 258 0 111 -33 188 -110
258 -36 33 -399 245 -1191 699 -626 358 -1166 664 -1199 681 -143 70 -320 100
-485 82z m377 -597 c200 -116 273 -163 273 -176 0 -10 -59 -331 -131 -714 -72
-382 -129 -697 -126 -699 2 -2 303 168 668 379 365 211 674 389 685 395 19 10
54 -7 290 -144 148 -85 272 -158 276 -162 6 -7 -2178 -1273 -2207 -1280 -22
-5 -555 308 -555 327 0 9 79 340 175 735 97 396 174 723 173 728 -2 4 -327
-179 -723 -408 -396 -229 -725 -418 -732 -421 -15 -6 -564 310 -555 319 8 8
2205 1278 2211 1278 2 0 127 -71 278 -157z"/>
<path d="M212 3734 l3 -329 30 -54 c16 -29 48 -69 70 -88 37 -33 2138 -1252
2288 -1329 141 -72 359 -124 518 -124 145 0 342 43 474 104 109 50 2236 1281
2283 1321 25 22 54 63 74 103 l33 67 3 323 3 323 -45 -43 c-51 -49 -2230
-1305 -2356 -1358 -104 -44 -240 -77 -369 -91 -195 -21 -427 16 -617 99 -102
45 -2287 1317 -2352 1369 l-43 35 3 -328z"/>
<path d="M212 2887 l3 -332 27 -50 c14 -27 44 -66 65 -87 35 -33 2143 -1258
2308 -1341 141 -70 342 -117 505 -117 171 0 369 49 527 129 161 82 2190 1260
2230 1295 25 22 55 64 75 104 l33 67 3 325 3 325 -38 -36 c-21 -20 -51 -45
-68 -56 -74 -50 -2192 -1267 -2250 -1293 -322 -144 -708 -144 -1030 0 -106 47
-2318 1329 -2359 1366 l-37 34 3 -333z"/>
<path d="M210 2061 c0 -283 1 -304 22 -358 42 -112 17 -96 1213 -786 605 -349
1132 -650 1170 -670 141 -70 342 -117 505 -117 170 0 366 47 520 126 164 83
2195 1262 2237 1298 25 22 55 64 75 104 l33 67 3 314 3 314 -53 -48 c-36 -32
-395 -245 -1118 -662 -1101 -636 -1157 -667 -1262 -707 -150 -56 -240 -70
-438 -70 -161 0 -197 3 -280 23 -110 28 -196 59 -283 102 -126 64 -2263 1303
-2304 1336 l-43 34 0 -300z"/>
</g>
</svg>
